<svg width="180" height="180" viewBox="0 0 395 323" fill="none" xmlns="http://www.w3.org/2000/svg">
    <path
        d="M118.407 199.014L27.7372 218.118C25.1169 218.667 22.3859 218.155 20.1431 216.693C17.9003 215.232 16.3289 212.941 15.7738 210.323L0.215056 136.538C-0.334164 133.919 0.17839 131.189 1.64029 128.947C3.1022 126.705 5.39405 125.135 8.01304 124.58L98.6827 105.476C101.303 104.927 104.034 105.439 106.277 106.9C108.52 108.362 110.091 110.653 110.646 113.271L126.205 187.056C126.754 189.675 126.242 192.405 124.78 194.647C123.318 196.889 121.026 198.459 118.407 199.014ZM8.25808 125.742C5.94722 126.231 3.925 127.617 2.63509 129.595C1.34518 131.573 0.892899 133.982 1.37749 136.293L16.9363 210.078C17.4261 212.388 18.8125 214.41 20.7915 215.699C22.7704 216.988 25.1802 217.44 27.4921 216.956L118.162 197.852C120.473 197.362 122.495 195.977 123.785 193.998C125.075 192.02 125.527 189.611 125.042 187.3L109.484 113.515C108.994 111.206 107.607 109.184 105.628 107.895C103.65 106.605 101.24 106.153 98.9277 106.638L8.25808 125.742Z"
        fill="#3A8B7D" />
    <path
        d="M93.049 129.805L47.2892 139.446C46.8887 139.539 46.4679 139.477 46.1118 139.271C45.7558 139.066 45.491 138.733 45.371 138.34C45.3161 138.135 45.3036 137.921 45.3342 137.711C45.3648 137.501 45.4379 137.3 45.5489 137.119C45.66 136.938 45.8068 136.782 45.9803 136.659C46.1538 136.537 46.3504 136.452 46.5581 136.408L93.1388 126.593C94.9575 127.618 94.3827 129.524 93.0484 129.805L93.049 129.805Z"
        fill="#CCCCCC" />
    <path
        d="M94.7408 137.828L48.981 147.47C48.5806 147.562 48.1598 147.5 47.8037 147.295C47.4477 147.089 47.1829 146.756 47.0629 146.363C47.008 146.158 46.9955 145.944 47.0261 145.734C47.0567 145.524 47.1298 145.323 47.2408 145.142C47.3519 144.961 47.4987 144.805 47.6722 144.683C47.8457 144.561 48.0423 144.475 48.25 144.431L94.8307 134.617C96.6494 135.641 96.0752 137.547 94.7408 137.828Z"
        fill="#CCCCCC" />
    <path
        d="M40.0522 154.122L26.0867 157.065C25.6307 157.16 25.1553 157.071 24.7649 156.817C24.3745 156.562 24.101 156.164 24.0044 155.708L20.5306 139.234C20.435 138.778 20.5242 138.303 20.7786 137.913C21.0331 137.522 21.4321 137.249 21.888 137.153L35.8534 134.21C36.3095 134.115 36.7848 134.204 37.1751 134.458C37.5655 134.713 37.839 135.111 37.9357 135.567L41.4095 152.041C41.5052 152.497 41.416 152.972 41.1615 153.362C40.907 153.752 40.5081 154.026 40.0522 154.122Z"
        fill="#CCCCCC" />
    <path
        d="M98.0718 154.284L28.234 168.999C27.8335 169.092 27.4127 169.029 27.0567 168.824C26.7006 168.618 26.4358 168.286 26.3158 167.893C26.2609 167.688 26.2484 167.474 26.279 167.264C26.3096 167.054 26.3827 166.852 26.4938 166.671C26.6049 166.491 26.7516 166.334 26.9251 166.212C27.0986 166.09 27.2952 166.004 27.5029 165.96L98.1622 151.073C99.981 152.097 99.4061 154.003 98.0718 154.284Z"
        fill="#CCCCCC" />
    <path
        d="M99.7642 162.31L29.9264 177.024C29.5259 177.117 29.1051 177.055 28.7491 176.849C28.393 176.644 28.1282 176.311 28.0082 175.918C27.9533 175.713 27.9408 175.499 27.9714 175.289C28.002 175.079 28.0751 174.878 28.1861 174.697C28.2972 174.516 28.444 174.36 28.6175 174.238C28.791 174.116 28.9876 174.03 29.1953 173.986L99.8546 159.098C101.673 160.123 101.099 162.029 99.7642 162.31Z"
        fill="#CCCCCC" />
    <path
        d="M101.456 170.33L31.6178 185.045C31.2173 185.138 30.7965 185.075 30.4405 184.87C30.0844 184.665 29.8196 184.332 29.6996 183.939C29.6447 183.734 29.6322 183.52 29.6628 183.31C29.6934 183.1 29.7665 182.898 29.8776 182.718C29.9886 182.537 30.1354 182.38 30.3089 182.258C30.4824 182.136 30.679 182.05 30.8867 182.007L101.546 167.119C103.365 168.143 102.79 170.049 101.456 170.33Z"
        fill="#CCCCCC" />
    <path
        d="M103.147 178.355L33.3097 193.07C32.9092 193.163 32.4884 193.1 32.1324 192.895C31.7763 192.69 31.5115 192.357 31.3915 191.964C31.3366 191.759 31.3241 191.545 31.3547 191.335C31.3853 191.125 31.4584 190.923 31.5694 190.743C31.6805 190.562 31.8273 190.406 32.0008 190.283C32.1743 190.161 32.3709 190.075 32.5786 190.032L103.238 175.144C105.057 176.168 104.482 178.074 103.147 178.355Z"
        fill="#CCCCCC" />
    <path
        d="M104.839 186.376L35.0011 201.091C34.6006 201.184 34.1798 201.121 33.8238 200.916C33.4677 200.711 33.2029 200.378 33.0829 199.985C33.028 199.78 33.0155 199.566 33.0461 199.356C33.0767 199.146 33.1498 198.945 33.2609 198.764C33.3719 198.583 33.5187 198.427 33.6922 198.304C33.8657 198.182 34.0623 198.097 34.27 198.053L104.929 183.165C106.748 184.19 106.173 186.095 104.839 186.376Z"
        fill="#CCCCCC" />
    <path
        d="M115.979 149.643C115.82 149.931 115.684 150.231 115.573 150.54L86.9824 157.632L82.0087 152.488L73.2622 158.977L81.182 168.938C81.8218 169.742 82.7055 170.318 83.7003 170.578C84.6952 170.838 85.7476 170.768 86.6995 170.379L117.723 157.707C118.743 158.458 119.967 158.88 121.232 158.918C122.498 158.956 123.745 158.607 124.808 157.92C125.871 157.232 126.699 156.237 127.182 155.067C127.666 153.897 127.781 152.608 127.514 151.371C127.246 150.134 126.608 149.007 125.685 148.142C124.761 147.276 123.596 146.712 122.343 146.524C121.091 146.336 119.811 146.534 118.675 147.092C117.538 147.649 116.597 148.539 115.979 149.643Z"
        fill="#FFB8B8" />
    <path
        d="M18.3888 212.754C19.2802 212.479 20.1003 212.012 20.7915 211.385C21.4826 210.759 22.028 209.989 22.3892 209.129C22.7504 208.27 22.9187 207.341 22.8821 206.409C22.8455 205.478 22.605 204.565 22.1774 203.736L41.8528 149.071L28.1889 146.651L13.1452 201.146C11.7999 201.956 10.7987 203.231 10.3313 204.73C9.86382 206.229 9.96263 207.847 10.609 209.278C11.2553 210.709 12.4043 211.853 13.8382 212.494C15.272 213.134 16.8912 213.227 18.3888 212.754Z"
        fill="#FFB8B8" />
    <path
        d="M39.3542 158.775L25.8633 153.599C25.4794 153.452 25.1318 153.224 24.8442 152.93C24.5565 152.637 24.3356 152.284 24.1964 151.898C24.0571 151.511 24.0029 151.099 24.0374 150.689C24.0719 150.28 24.1943 149.882 24.3963 149.524L31.4736 136.981C32.239 135.023 33.7498 133.448 35.6749 132.601C37.6 131.755 39.7823 131.706 41.7436 132.465C43.7048 133.224 45.2851 134.729 46.138 136.651C46.9909 138.572 47.0468 140.754 46.2936 142.716L43.1719 156.727C43.0824 157.129 42.9074 157.506 42.659 157.833C42.4105 158.161 42.0944 158.431 41.7321 158.625C41.3698 158.819 40.9698 158.933 40.5595 158.959C40.1492 158.985 39.7381 158.922 39.3542 158.775Z"
        fill="#F3F4F6" />
    <path d="M69.8049 315.385H77.0866L80.5513 287.308L69.8037 287.308L69.8049 315.385Z"
        fill="#FFB8B8" />
    <path
        d="M67.9473 313.009L82.2884 313.008H82.289C83.4892 313.008 84.6776 313.245 85.7865 313.704C86.8953 314.163 87.9028 314.836 88.7515 315.684C89.6002 316.532 90.2734 317.539 90.7327 318.648C91.1919 319.756 91.4283 320.944 91.4283 322.144V322.441L67.9477 322.442L67.9473 313.009Z"
        fill="#2F2E41" />
    <path d="M28.82 315.385H36.1017L39.5665 287.308L28.8188 287.308L28.82 315.385Z" fill="#FFB8B8" />
    <path
        d="M26.9619 313.009L41.303 313.008H41.3036C42.5038 313.008 43.6923 313.245 44.8011 313.704C45.9099 314.163 46.9175 314.836 47.7661 315.684C48.6148 316.532 49.288 317.539 49.7473 318.648C50.2066 319.756 50.443 320.944 50.443 322.144V322.441L26.9623 322.442L26.9619 313.009Z"
        fill="#2F2E41" />
    <path
        d="M36.4538 304.085H27.2383C26.8766 304.085 26.5187 304.011 26.1862 303.869C25.8537 303.726 25.5536 303.518 25.304 303.257C25.0544 302.995 24.8605 302.685 24.7341 302.347C24.6076 302.008 24.5513 301.647 24.5684 301.286L28.9458 207.276L29.2216 207.269L73.7226 206.109L82.4307 300.172C82.4642 300.525 82.4272 300.881 82.3219 301.219C82.2166 301.557 82.0451 301.871 81.8173 302.143C81.5895 302.414 81.3101 302.637 80.9952 302.8C80.6803 302.962 80.3362 303.06 79.983 303.088L69.632 303.916C68.9817 303.968 68.335 303.78 67.8135 303.388C67.292 302.997 66.9317 302.428 66.8004 301.789L53.5603 234.828C53.5241 234.625 53.4162 234.441 53.2561 234.31C53.096 234.18 52.8943 234.111 52.6877 234.116H52.6841C52.4767 234.111 52.2747 234.182 52.1148 234.314C51.9548 234.446 51.8478 234.631 51.8131 234.835L39.0765 301.929C38.9558 302.536 38.6287 303.082 38.1505 303.475C37.6724 303.868 37.0729 304.084 36.4538 304.085Z"
        fill="#3E3D54" />
    <path
        d="M53.335 123.431C61.3923 123.431 67.924 116.902 67.924 108.848C67.924 100.794 61.3923 94.2653 53.335 94.2653C45.2778 94.2653 38.7461 100.794 38.7461 108.848C38.7461 116.902 45.2778 123.431 53.335 123.431Z"
        fill="#FFB8B8" />
    <path
        d="M48.443 218.293C41.4896 218.293 34.3476 216.466 28.4268 211.064C28.1117 210.779 27.8685 210.423 27.7168 210.026C27.5652 209.629 27.5094 209.201 27.554 208.778C28.1877 203.087 31.2617 173.699 29.5305 154.068C29.1927 150.401 29.712 146.706 31.0475 143.275C32.383 139.843 34.4982 136.768 37.226 134.294C39.906 131.824 43.1235 130.012 46.6244 128.998C50.1253 127.985 53.8139 127.799 57.3991 128.455C57.5808 128.487 57.7625 128.521 57.9443 128.556C69.6242 130.816 77.7395 141.621 76.8212 153.69C75.4813 171.301 74.2801 195.122 76.1662 208.593C76.2444 209.144 76.1481 209.706 75.8909 210.199C75.6337 210.693 75.2284 211.094 74.7318 211.346C70.4404 213.513 59.6884 218.293 48.443 218.293Z"
        fill="#F3F4F6" />
    <path
        d="M67.4798 159.824C67.1375 159.597 66.8483 159.298 66.6321 158.948C66.4158 158.599 66.2776 158.207 66.2268 157.799L64.4494 143.555C63.8852 141.529 64.1475 139.363 65.1789 137.53C66.2103 135.697 67.9267 134.348 69.9516 133.779C71.9765 133.209 74.1447 133.465 75.9809 134.491C77.8171 135.517 79.1715 137.229 79.747 139.251L85.6015 152.409C85.7686 152.785 85.8527 153.192 85.8482 153.603C85.8436 154.014 85.7505 154.419 85.5752 154.791C85.3999 155.163 85.1465 155.492 84.8323 155.757C84.5181 156.022 84.1504 156.217 83.7543 156.327L69.8328 160.199C69.4367 160.31 69.0214 160.333 68.6153 160.269C68.2093 160.204 67.8219 160.052 67.4798 159.824Z"
        fill="#F3F4F6" />
    <path
        d="M48.242 123.226C46.8611 123.251 45.4888 123.003 44.2045 122.495C43.6394 122.278 43.0528 122.099 42.4887 121.881C37.5072 119.957 34.2256 114.654 34.1081 109.317C33.9906 103.98 36.7555 98.7999 40.8612 95.3861C44.9669 91.9723 50.2848 90.2197 55.6098 89.8144C61.3457 89.3778 67.8045 90.8318 71.0097 95.6067C71.8629 96.8778 72.4595 98.4198 71.954 99.9545C71.8026 100.418 71.5321 100.833 71.1698 101.159C69.7384 102.432 68.3114 101.474 66.8522 101.39C64.8466 101.274 63.0452 102.896 62.3977 104.797C61.7503 106.698 62.0353 108.791 62.558 110.73C62.9563 111.897 63.2074 113.109 63.3054 114.338C63.3476 114.954 63.2317 115.571 62.9686 116.13C62.7055 116.689 62.304 117.171 61.8021 117.531C60.5488 118.289 58.903 117.85 57.649 117.094C56.395 116.338 55.3114 115.287 53.9569 114.731C52.6024 114.174 50.7825 114.298 49.9941 115.531C49.7435 115.98 49.574 116.47 49.4931 116.977C48.7863 120.196 48.9488 120.007 48.242 123.226Z"
        fill="#2F2E41" />
    <path
        d="M250.315 103.312H157.653C154.976 103.309 152.41 102.245 150.517 100.353C148.624 98.4605 147.559 95.8949 147.556 93.2188V17.8125C147.559 15.1364 148.624 12.5708 150.517 10.6785C152.41 8.78617 154.976 7.72176 157.653 7.71875H250.315C252.993 7.72176 255.559 8.78617 257.452 10.6785C259.345 12.5708 260.41 15.1364 260.413 17.8125V93.2188C260.41 95.8949 259.345 98.4605 257.452 100.353C255.559 102.245 252.993 103.309 250.315 103.312ZM157.653 8.90625C155.291 8.90892 153.027 9.84811 151.356 11.5178C149.686 13.1874 148.746 15.4512 148.744 17.8125V93.2188C148.746 95.58 149.686 97.8438 151.356 99.5135C153.027 101.183 155.291 102.122 157.653 102.125H250.315C252.678 102.122 254.942 101.183 256.613 99.5135C258.283 97.8438 259.223 95.58 259.225 93.2188V17.8125C259.223 15.4512 258.283 13.1874 256.613 11.5178C254.942 9.84811 252.678 8.90892 250.315 8.90625H157.653Z"
        fill="#3A8B7D" />
    <path
        d="M239.783 30.3632H193.018C192.607 30.3715 192.208 30.2236 191.902 29.9492C191.596 29.6749 191.406 29.2946 191.369 28.8853C191.358 28.6734 191.39 28.4615 191.463 28.2623C191.536 28.0632 191.65 27.881 191.796 27.727C191.942 27.573 192.117 27.4504 192.312 27.3665C192.507 27.2827 192.717 27.2395 192.93 27.2395H240.534C242.102 28.617 241.147 30.3632 239.783 30.3632Z"
        fill="#CCCCCC" />
    <path
        d="M239.783 38.5629H193.018C192.607 38.5712 192.208 38.4233 191.902 38.1489C191.596 37.8746 191.406 37.4943 191.369 37.085C191.358 36.8731 191.39 36.6611 191.463 36.462C191.536 36.2629 191.65 36.0807 191.796 35.9267C191.942 35.7727 192.117 35.6501 192.312 35.5662C192.507 35.4824 192.717 35.4392 192.93 35.4392H240.534C242.102 36.8167 241.147 38.5629 239.783 38.5629Z"
        fill="#CCCCCC" />
    <path
        d="M182.908 43.2315H168.636C168.17 43.2311 167.723 43.0458 167.394 42.7164C167.064 42.387 166.879 41.9404 166.878 41.4746V24.6388C166.879 24.173 167.064 23.7264 167.394 23.397C167.723 23.0677 168.17 22.8824 168.636 22.8819H182.908C183.374 22.8826 183.821 23.0679 184.15 23.3972C184.48 23.7266 184.665 24.1731 184.666 24.6388V41.4746C184.666 41.9404 184.48 42.387 184.151 42.7164C183.821 43.0458 183.374 43.2311 182.908 43.2315Z"
        fill="#3F3D56" />
    <path
        d="M239.647 55.3517H168.275C167.864 55.3601 167.465 55.2121 167.159 54.9378C166.853 54.6635 166.663 54.2832 166.626 53.8739C166.615 53.662 166.647 53.4501 166.72 53.2509C166.793 53.0518 166.906 52.8696 167.052 52.7156C167.198 52.5616 167.374 52.439 167.569 52.3551C167.764 52.2713 167.974 52.2281 168.187 52.2281H240.398C241.967 53.6056 241.011 55.3517 239.647 55.3517Z"
        fill="#CCCCCC" />
    <path
        d="M239.647 63.5538H168.275C167.864 63.5621 167.465 63.4142 167.159 63.1398C166.853 62.8655 166.663 62.4853 166.626 62.0759C166.615 61.8641 166.647 61.6521 166.72 61.4529C166.793 61.2538 166.906 61.0717 167.052 60.9177C167.198 60.7637 167.374 60.641 167.569 60.5572C167.764 60.4733 167.974 60.4301 168.187 60.4301H240.398C241.967 61.8076 241.011 63.5538 239.647 63.5538Z"
        fill="#CCCCCC" />
    <path
        d="M239.647 71.7505H168.275C167.864 71.7589 167.465 71.6109 167.159 71.3366C166.853 71.0622 166.663 70.682 166.626 70.2727C166.615 70.0608 166.647 69.8488 166.72 69.6497C166.793 69.4505 166.906 69.2684 167.052 69.1144C167.198 68.9604 167.374 68.8377 167.569 68.7539C167.764 68.6701 167.974 68.6268 168.187 68.6268H240.398C241.967 70.0043 241.011 71.7505 239.647 71.7505Z"
        fill="#CCCCCC" />
    <path
        d="M239.647 79.952H168.275C167.864 79.9603 167.465 79.8124 167.159 79.5381C166.853 79.2637 166.663 78.8835 166.626 78.4741C166.615 78.2623 166.647 78.0503 166.72 77.8512C166.793 77.652 166.906 77.4699 167.052 77.3159C167.198 77.1619 167.374 77.0392 167.569 76.9554C167.764 76.8716 167.974 76.8283 168.187 76.8283H240.398C241.967 78.2058 241.011 79.952 239.647 79.952Z"
        fill="#CCCCCC" />
    <path
        d="M239.647 88.1493H168.275C167.864 88.1577 167.465 88.0097 167.159 87.7354C166.853 87.461 166.663 87.0808 166.626 86.6714C166.615 86.4596 166.647 86.2476 166.72 86.0485C166.793 85.8493 166.906 85.6672 167.052 85.5132C167.198 85.3591 167.374 85.2365 167.569 85.1527C167.764 85.0688 167.974 85.0256 168.187 85.0256H240.398C241.967 86.4031 241.011 88.1493 239.647 88.1493Z"
        fill="#CCCCCC" />
    <path
        d="M230.12 0C230.908 0.000900453 231.662 0.313968 232.219 0.870521C232.776 1.42707 233.089 2.18166 233.09 2.96875V12.4688C233.089 13.2558 232.776 14.0104 232.219 14.567C231.662 15.1235 230.908 15.4366 230.12 15.4375H177.849C177.062 15.4366 176.307 15.1235 175.75 14.567C175.193 14.0104 174.88 13.2558 174.879 12.4688V2.96875C174.88 2.18166 175.193 1.42707 175.75 0.870521C176.307 0.313968 177.062 0.000900453 177.849 0"
        fill="#3E3D54" />
    <path
        d="M383.963 196.531H291.301C288.624 196.528 286.057 195.464 284.164 193.572C282.271 191.679 281.206 189.114 281.203 186.438V111.031C281.206 108.355 282.271 105.79 284.164 103.897C286.057 102.005 288.624 100.941 291.301 100.938H383.963C386.64 100.941 389.207 102.005 391.1 103.897C392.993 105.79 394.058 108.355 394.061 111.031V186.438C394.058 189.114 392.993 191.679 391.1 193.572C389.207 195.464 386.64 196.528 383.963 196.531ZM291.301 102.125C288.939 102.128 286.674 103.067 285.004 104.737C283.333 106.406 282.394 108.67 282.391 111.031V186.438C282.394 188.799 283.333 191.063 285.004 192.732C286.674 194.402 288.939 195.341 291.301 195.344H383.963C386.325 195.341 388.59 194.402 390.26 192.732C391.93 191.063 392.87 188.799 392.873 186.438V111.031C392.87 108.67 391.93 106.406 390.26 104.737C388.59 103.067 386.325 102.128 383.963 102.125H291.301Z"
        fill="#3A8B7D" />
    <path
        d="M373.43 123.582H326.665C326.254 123.59 325.855 123.442 325.549 123.168C325.243 122.894 325.053 122.513 325.016 122.104C325.005 121.892 325.037 121.68 325.11 121.481C325.183 121.282 325.297 121.1 325.443 120.946C325.589 120.792 325.764 120.669 325.959 120.585C326.154 120.501 326.364 120.458 326.577 120.458H374.181C375.749 121.836 374.794 123.582 373.43 123.582Z"
        fill="#3F3D56" />
    <path
        d="M373.43 131.782H326.665C326.254 131.79 325.855 131.642 325.549 131.368C325.243 131.093 325.053 130.713 325.016 130.304C325.005 130.092 325.037 129.88 325.11 129.681C325.183 129.482 325.297 129.299 325.443 129.145C325.589 128.991 325.764 128.869 325.959 128.785C326.154 128.701 326.364 128.658 326.577 128.658H374.181C375.749 130.035 374.794 131.782 373.43 131.782Z"
        fill="#3F3D56" />
    <path
        d="M316.556 136.45H302.284C301.818 136.45 301.371 136.265 301.041 135.935C300.712 135.606 300.526 135.159 300.526 134.693V117.858C300.526 117.392 300.712 116.945 301.041 116.616C301.371 116.286 301.818 116.101 302.284 116.101H316.556C317.022 116.101 317.468 116.287 317.798 116.616C318.127 116.945 318.313 117.392 318.313 117.858V134.693C318.313 135.159 318.128 135.606 317.798 135.935C317.469 136.265 317.022 136.45 316.556 136.45Z"
        fill="#CCCCCC" />
    <path
        d="M372.985 182.169H358.712C358.246 182.169 357.799 181.983 357.47 181.654C357.14 181.325 356.955 180.878 356.955 180.412V170.701C356.955 170.236 357.14 169.789 357.47 169.46C357.799 169.13 358.246 168.945 358.712 168.944H372.985C373.45 168.945 373.897 169.13 374.227 169.46C374.556 169.789 374.742 170.236 374.742 170.701V180.412C374.742 180.878 374.556 181.325 374.227 181.654C373.897 181.983 373.451 182.169 372.985 182.169Z"
        fill="#3F3D56" />
    <path
        d="M373.294 148.57H301.922C301.511 148.579 301.112 148.431 300.806 148.157C300.5 147.882 300.31 147.502 300.273 147.093C300.262 146.881 300.294 146.669 300.367 146.47C300.44 146.271 300.553 146.088 300.699 145.934C300.845 145.78 301.021 145.658 301.216 145.574C301.411 145.49 301.621 145.447 301.834 145.447H374.045C375.614 146.824 374.658 148.57 373.294 148.57Z"
        fill="#CCCCCC" />
    <path
        d="M373.294 156.773H301.922C301.511 156.781 301.112 156.633 300.806 156.359C300.5 156.084 300.31 155.704 300.273 155.295C300.262 155.083 300.294 154.871 300.367 154.672C300.44 154.473 300.553 154.29 300.699 154.136C300.845 153.982 301.021 153.86 301.216 153.776C301.411 153.692 301.621 153.649 301.834 153.649H374.045C375.614 155.026 374.658 156.773 373.294 156.773Z"
        fill="#CCCCCC" />
    <path
        d="M373.294 164.969H301.922C301.511 164.978 301.112 164.83 300.806 164.555C300.5 164.281 300.31 163.901 300.273 163.491C300.262 163.28 300.294 163.068 300.367 162.868C300.44 162.669 300.553 162.487 300.699 162.333C300.845 162.179 301.021 162.056 301.216 161.973C301.411 161.889 301.621 161.846 301.834 161.846H374.045C375.614 163.223 374.658 164.969 373.294 164.969Z"
        fill="#CCCCCC" />
    <path
        d="M335.873 173.171H301.922C301.511 173.179 301.112 173.031 300.806 172.757C300.5 172.482 300.31 172.102 300.273 171.693C300.262 171.481 300.294 171.269 300.367 171.07C300.44 170.871 300.553 170.689 300.699 170.535C300.845 170.381 301.021 170.258 301.216 170.174C301.411 170.09 301.621 170.047 301.834 170.047H336.624C338.192 171.425 337.237 173.171 335.873 173.171Z"
        fill="#CCCCCC" />
    <path
        d="M335.873 181.368H301.922C301.511 181.376 301.112 181.228 300.806 180.954C300.5 180.68 300.31 180.3 300.273 179.89C300.262 179.678 300.294 179.466 300.367 179.267C300.44 179.068 300.553 178.886 300.699 178.732C300.845 178.578 301.021 178.455 301.216 178.371C301.411 178.288 301.621 178.244 301.834 178.244H336.624C338.192 179.622 337.237 181.368 335.873 181.368Z"
        fill="#CCCCCC" />
    <path
        d="M363.767 108.656H311.496C310.709 108.655 309.954 108.342 309.397 107.786C308.84 107.229 308.527 106.475 308.526 105.688V96.1875C308.527 95.4004 308.84 94.6458 309.397 94.0893C309.954 93.5327 310.709 93.2197 311.496 93.2188H363.767C364.555 93.2197 365.309 93.5327 365.866 94.0893C366.423 94.6458 366.736 95.4004 366.737 96.1875V105.688C366.736 106.475 366.423 107.229 365.866 107.786C365.309 108.342 364.555 108.655 363.767 108.656Z"
        fill="#00FFF0" />
</svg>
    