<svg width="180" height="180" viewBox="0 0 395 323" fill="none" xmlns="http://www.w3.org/2000/svg">
    <path
        d="M384.959 133.619H24.2711C22.7396 133.619 21.2709 134.358 20.1879 135.673C19.105 136.988 18.4966 138.772 18.4966 140.632C18.4966 142.492 19.105 144.276 20.1879 145.591C21.2709 146.907 22.7396 147.646 24.2711 147.646H34.4877V315.427C34.4877 317.287 35.0961 319.071 36.179 320.386C37.262 321.701 38.7308 322.44 40.2623 322.44C41.7938 322.44 43.2626 321.701 44.3455 320.386C45.4284 319.071 46.0368 317.287 46.0368 315.427L46.1246 147.646H335.613L362.305 315.427C362.305 317.287 362.913 319.071 363.996 320.386C365.079 321.701 366.548 322.44 368.08 322.44C369.611 322.44 371.08 321.701 372.163 320.386C373.246 319.071 373.854 317.287 373.854 315.427L375.534 147.646H384.959C386.49 147.646 387.959 146.907 389.042 145.591C390.125 144.276 390.734 142.492 390.734 140.632C390.734 138.772 390.125 136.988 389.042 135.673C387.959 134.358 386.49 133.619 384.959 133.619Z"
        fill="#3E3D54" />
    <path
        d="M86.7914 102.368V132.068H25.5258C23.9202 132.136 22.3192 131.819 20.8144 131.135C19.3096 130.452 17.9304 129.415 16.7555 128.084C15.5807 126.753 14.6332 125.154 13.9671 123.378C13.301 121.603 12.9295 119.685 12.8736 117.735C12.8177 115.785 13.0787 113.84 13.6415 112.013C14.2044 110.185 15.0581 108.51 16.154 107.083C17.2499 105.656 18.5664 104.505 20.0285 103.696C21.4905 102.888 23.0694 102.436 24.6751 102.368C24.9586 102.356 25.2421 102.356 25.5258 102.368L86.7914 102.368Z"
        fill="#F2F2F2" />
    <path
        d="M88.296 131.84C88.2959 132.142 88.1968 132.433 88.0204 132.647C87.8441 132.861 87.6049 132.982 87.3555 132.982H24.4343C21.0185 132.979 17.7434 131.329 15.3289 128.394C12.9144 125.46 11.5581 121.481 11.5581 117.332C11.5581 113.184 12.9144 109.205 15.3289 106.27C17.7434 103.336 21.0185 101.686 24.4343 101.683H87.3555C87.4792 101.683 87.6018 101.712 87.7162 101.769C87.8306 101.826 87.9345 101.91 88.0221 102.017C88.1097 102.123 88.1792 102.249 88.2267 102.387C88.2741 102.526 88.2985 102.675 88.2985 102.825C88.2985 102.976 88.2741 103.124 88.2267 103.263C88.1792 103.402 88.1097 103.528 88.0221 103.634C87.9345 103.74 87.8306 103.824 87.7162 103.881C87.6018 103.939 87.4792 103.968 87.3555 103.968H24.4343C21.5187 103.973 18.724 105.383 16.664 107.889C14.6039 110.395 13.4468 113.791 13.4468 117.332C13.4468 120.873 14.6039 124.27 16.664 126.776C18.724 129.281 21.5187 130.692 24.4343 130.697H87.3555C87.6049 130.697 87.8441 130.818 88.0204 131.032C88.1968 131.246 88.2959 131.537 88.296 131.84Z"
        fill="#00FFF0" />
    <path
        d="M86.7916 109.222H20.9547C20.905 109.222 20.8571 109.199 20.8217 109.156C20.7863 109.114 20.7661 109.056 20.7656 108.996C20.7652 108.935 20.7845 108.877 20.8193 108.834C20.854 108.791 20.9015 108.766 20.9513 108.765H86.7916C86.8411 108.766 86.8885 108.79 86.9233 108.833C86.9582 108.876 86.9778 108.934 86.9778 108.994C86.9778 109.054 86.9582 109.112 86.9233 109.154C86.8885 109.197 86.8411 109.222 86.7916 109.222Z"
        fill="#CCCCCC" />
    <path
        d="M86.7916 114.705H20.9547C20.905 114.705 20.8571 114.682 20.8217 114.639C20.7863 114.597 20.7661 114.539 20.7656 114.479C20.7652 114.418 20.7845 114.36 20.8193 114.317C20.854 114.274 20.9015 114.249 20.9513 114.248H86.7916C86.8411 114.249 86.8885 114.273 86.9233 114.316C86.9582 114.359 86.9778 114.417 86.9778 114.477C86.9778 114.537 86.9582 114.595 86.9233 114.637C86.8885 114.68 86.8411 114.705 86.7916 114.705Z"
        fill="#CCCCCC" />
    <path
        d="M86.7916 120.188H20.9547C20.905 120.189 20.8571 120.165 20.8217 120.122C20.7863 120.08 20.7661 120.022 20.7656 119.962C20.7652 119.901 20.7845 119.843 20.8193 119.8C20.854 119.757 20.9015 119.732 20.9513 119.731H86.7916C86.8411 119.732 86.8885 119.756 86.9233 119.799C86.9582 119.842 86.9778 119.9 86.9778 119.96C86.9778 120.02 86.9582 120.078 86.9233 120.12C86.8885 120.163 86.8411 120.188 86.7916 120.188Z"
        fill="#CCCCCC" />
    <path
        d="M86.7916 125.671H20.9547C20.905 125.671 20.8571 125.648 20.8217 125.605C20.7863 125.563 20.7661 125.505 20.7656 125.445C20.7652 125.384 20.7845 125.326 20.8193 125.283C20.854 125.24 20.9015 125.215 20.9513 125.214H86.7916C86.8411 125.215 86.8885 125.239 86.9233 125.282C86.9582 125.325 86.9778 125.383 86.9778 125.443C86.9778 125.503 86.9582 125.561 86.9233 125.603C86.8885 125.646 86.8411 125.671 86.7916 125.671Z"
        fill="#CCCCCC" />
    <path
        d="M75.2421 71.0781V100.778H13.9765C10.7337 100.915 7.57899 99.4816 5.20624 96.7936C2.83349 94.1056 1.43711 90.3829 1.3243 86.4445C1.21149 82.5061 2.39147 78.6745 4.60468 75.7928C6.81788 72.911 9.88302 71.2151 13.1258 71.0781C13.4093 71.0661 13.6928 71.0661 13.9765 71.0781H75.2421Z"
        fill="#F2F2F2" />
    <path
        d="M76.7469 100.549C76.7468 100.852 76.6477 101.143 76.4713 101.357C76.2949 101.571 76.0558 101.691 75.8064 101.692H12.8852C9.46784 101.692 6.19043 100.043 3.77399 97.1079C1.35754 94.1731 0 90.1926 0 86.0421C0 81.8916 1.35754 77.9112 3.77399 74.9763C6.19043 72.0415 9.46784 70.3927 12.8852 70.3927H75.8064C75.9299 70.3927 76.0522 70.4223 76.1663 70.4797C76.2804 70.5371 76.3841 70.6212 76.4714 70.7273C76.5588 70.8333 76.628 70.9593 76.6753 71.0979C76.7226 71.2365 76.7469 71.385 76.7469 71.535C76.7469 71.685 76.7226 71.8335 76.6753 71.9721C76.628 72.1107 76.5588 72.2367 76.4714 72.3427C76.3841 72.4488 76.2804 72.5329 76.1663 72.5903C76.0522 72.6477 75.9299 72.6773 75.8064 72.6773H12.8852C9.96672 72.6773 7.16778 74.0854 5.10409 76.5918C3.04041 79.0982 1.88105 82.4976 1.88105 86.0421C1.88105 89.5867 3.04041 92.9861 5.10409 95.4925C7.16778 97.9989 9.96672 99.407 12.8852 99.407H75.8064C76.0558 99.4071 76.2949 99.5275 76.4713 99.7417C76.6477 99.9559 76.7468 100.246 76.7469 100.549Z"
        fill="#3F3D56" />
    <path
        d="M75.2427 77.9318H9.40593C9.35616 77.9321 9.30832 77.9085 9.27288 77.8661C9.23743 77.8236 9.21726 77.7659 9.2168 77.7055C9.21635 77.645 9.23563 77.5868 9.27043 77.5436C9.30522 77.5004 9.3527 77.4757 9.40246 77.4749H75.2427C75.2923 77.4755 75.3396 77.4998 75.3745 77.5426C75.4094 77.5854 75.429 77.6431 75.429 77.7033C75.429 77.7635 75.4094 77.8213 75.3745 77.8641C75.3396 77.9069 75.2923 77.9312 75.2427 77.9318Z"
        fill="#CCCCCC" />
    <path
        d="M75.2427 83.4148H9.40593C9.35616 83.4152 9.30832 83.3915 9.27288 83.3491C9.23743 83.3067 9.21726 83.2489 9.2168 83.1885C9.21635 83.1281 9.23563 83.0699 9.27043 83.0267C9.30522 82.9834 9.3527 82.9587 9.40246 82.9579H75.2427C75.2923 82.9585 75.3396 82.9829 75.3745 83.0257C75.4094 83.0684 75.429 83.1262 75.429 83.1864C75.429 83.2466 75.4094 83.3044 75.3745 83.3471C75.3396 83.3899 75.2923 83.4142 75.2427 83.4148Z"
        fill="#CCCCCC" />
    <path
        d="M75.2427 88.8979H9.40593C9.35616 88.8982 9.30832 88.8746 9.27288 88.8321C9.23743 88.7897 9.21726 88.732 9.2168 88.6715C9.21635 88.6111 9.23563 88.5529 9.27043 88.5097C9.30522 88.4665 9.3527 88.4418 9.40246 88.441H75.2427C75.2923 88.4416 75.3396 88.4659 75.3745 88.5087C75.4094 88.5515 75.429 88.6092 75.429 88.6694C75.429 88.7296 75.4094 88.7874 75.3745 88.8302C75.3396 88.8729 75.2923 88.8973 75.2427 88.8979Z"
        fill="#CCCCCC" />
    <path
        d="M75.2427 94.3808H9.40593C9.35616 94.3811 9.30832 94.3575 9.27288 94.3151C9.23743 94.2726 9.21726 94.2149 9.2168 94.1545C9.21635 94.094 9.23563 94.0358 9.27043 93.9926C9.30522 93.9494 9.3527 93.9247 9.40246 93.9239H75.2427C75.2923 93.9245 75.3396 93.9488 75.3745 93.9916C75.4094 94.0344 75.429 94.0922 75.429 94.1524C75.429 94.2126 75.4094 94.2703 75.3745 94.3131C75.3396 94.3559 75.2923 94.3802 75.2427 94.3808Z"
        fill="#CCCCCC" />
    <path
        d="M146.513 238.713V212.818C146.513 211.673 146.139 210.575 145.472 209.766C144.806 208.957 143.902 208.502 142.959 208.502H62.1156C61.1731 208.502 60.2693 208.957 59.6029 209.766C58.9364 210.575 58.562 211.673 58.562 212.818V238.713H146.513Z"
        fill="#3E3D54" />
    <path d="M146.513 248.424H58.562V281.872H146.513V248.424Z" fill="#3E3D54" />
    <path
        d="M58.562 291.583V317.479C58.562 318.623 58.9364 319.721 59.6029 320.53C60.2693 321.34 61.1731 321.795 62.1156 321.795H142.959C143.902 321.795 144.806 321.34 145.472 320.53C146.139 319.721 146.513 318.623 146.513 317.479V291.583H58.562Z"
        fill="#3E3D54" />
    <path
        d="M102.093 227.923C103.565 227.923 104.759 226.474 104.759 224.686C104.759 222.899 103.565 221.45 102.093 221.45C100.621 221.45 99.4282 222.899 99.4282 224.686C99.4282 226.474 100.621 227.923 102.093 227.923Z"
        fill="white" />
    <path
        d="M102.093 271.083C103.565 271.083 104.759 269.633 104.759 267.846C104.759 266.058 103.565 264.609 102.093 264.609C100.621 264.609 99.4282 266.058 99.4282 267.846C99.4282 269.633 100.621 271.083 102.093 271.083Z"
        fill="white" />
    <path
        d="M102.236 313.328C103.708 313.328 104.901 311.879 104.901 310.091C104.901 308.303 103.708 306.854 102.236 306.854C100.764 306.854 99.5708 308.303 99.5708 310.091C99.5708 311.879 100.764 313.328 102.236 313.328Z"
        fill="white" />
    <path
        d="M136.541 178.976V208.675H75.2758C72.0345 208.81 68.8819 207.375 66.511 204.688C64.14 202 62.7448 198.279 62.6319 194.342C62.5191 190.406 63.6978 186.576 65.9091 183.694C68.1203 180.813 71.1831 179.116 74.4243 178.976C74.7081 178.964 74.9919 178.964 75.2758 178.976H136.541Z"
        fill="#F2F2F2" />
    <path
        d="M138.046 208.447C138.046 208.75 137.947 209.04 137.77 209.255C137.594 209.469 137.355 209.589 137.105 209.589H74.1843C70.7677 209.59 67.4907 207.943 65.0738 205.01C62.6568 202.077 61.298 198.099 61.2959 193.949C61.2938 189.8 62.6488 185.819 65.0628 182.883C67.4768 179.946 70.7522 178.294 74.1688 178.29H137.105C137.229 178.29 137.352 178.319 137.466 178.376C137.581 178.434 137.685 178.518 137.772 178.624C137.86 178.73 137.929 178.856 137.977 178.995C138.024 179.134 138.048 179.282 138.048 179.433C138.048 179.583 138.024 179.732 137.977 179.871C137.929 180.009 137.86 180.135 137.772 180.241C137.685 180.348 137.581 180.432 137.466 180.489C137.352 180.546 137.229 180.575 137.105 180.575H74.1843C71.2683 180.58 68.4731 181.99 66.4125 184.496C64.3519 187.002 63.1945 190.398 63.1945 193.94C63.1945 197.481 64.3519 200.878 66.4125 203.384C68.4731 205.89 71.2683 207.3 74.1843 207.305H137.105C137.355 207.305 137.594 207.425 137.77 207.639C137.947 207.854 138.046 208.144 138.046 208.447Z"
        fill="#3F3D56" />
    <path
        d="M136.541 185.83H70.7047C70.655 185.83 70.6071 185.806 70.5717 185.764C70.5362 185.721 70.5161 185.664 70.5156 185.603C70.5152 185.543 70.5344 185.485 70.5692 185.441C70.604 185.398 70.6515 185.373 70.7013 185.373H136.542C136.591 185.373 136.639 185.398 136.673 185.44C136.708 185.483 136.728 185.541 136.728 185.601C136.728 185.661 136.708 185.719 136.673 185.762C136.639 185.805 136.591 185.829 136.541 185.83Z"
        fill="#CCCCCC" />
    <path
        d="M136.541 191.313H70.7047C70.655 191.313 70.6071 191.289 70.5717 191.247C70.5362 191.204 70.5161 191.147 70.5156 191.086C70.5152 191.026 70.5344 190.968 70.5692 190.924C70.604 190.881 70.6515 190.856 70.7013 190.856H136.542C136.591 190.856 136.639 190.881 136.673 190.923C136.708 190.966 136.728 191.024 136.728 191.084C136.728 191.144 136.708 191.202 136.673 191.245C136.639 191.288 136.591 191.312 136.541 191.313Z"
        fill="#CCCCCC" />
    <path
        d="M136.541 196.796H70.7047C70.655 196.796 70.6071 196.772 70.5717 196.73C70.5362 196.687 70.5161 196.63 70.5156 196.569C70.5152 196.509 70.5344 196.451 70.5692 196.407C70.604 196.364 70.6515 196.34 70.7013 196.339H136.542C136.591 196.339 136.639 196.364 136.673 196.406C136.708 196.449 136.728 196.507 136.728 196.567C136.728 196.627 136.708 196.685 136.673 196.728C136.639 196.771 136.591 196.795 136.541 196.796Z"
        fill="#CCCCCC" />
    <path
        d="M136.541 202.279H70.7047C70.655 202.279 70.6071 202.255 70.5717 202.213C70.5362 202.17 70.5161 202.113 70.5156 202.052C70.5152 201.992 70.5344 201.934 70.5692 201.89C70.604 201.847 70.6515 201.822 70.7013 201.822H136.542C136.591 201.822 136.639 201.847 136.673 201.889C136.708 201.932 136.728 201.99 136.728 202.05C136.728 202.11 136.708 202.168 136.673 202.211C136.639 202.254 136.591 202.278 136.541 202.279Z"
        fill="#CCCCCC" />
    <path
        d="M64.5884 61.1703H36.6751C36.4102 61.1701 36.1488 61.2439 35.9112 61.3861L28.8661 65.6697C28.6343 65.7893 28.4366 65.9892 28.2976 66.2444C28.1586 66.4996 28.0845 66.7987 28.0845 67.1047C28.0845 67.4106 28.1586 67.7098 28.2976 67.965C28.4366 68.2202 28.6343 68.42 28.8661 68.5397L35.9112 72.8232C36.1488 72.9655 36.4102 73.0393 36.6751 73.039H64.5884C64.973 73.0661 65.351 72.908 65.6404 72.599C65.9297 72.29 66.1072 71.855 66.1344 71.3882V62.8211C66.1072 62.3544 65.9297 61.9194 65.6403 61.6104C65.351 61.3014 64.973 61.1433 64.5884 61.1703Z"
        fill="#00FFF0" />
    <path
        d="M66.1345 62.8212V71.3882C66.1073 71.855 65.9298 72.29 65.6405 72.599C65.3511 72.908 64.9731 73.0661 64.5885 73.0391H59.0273V61.1703H64.5885C64.9731 61.1433 65.3511 61.3014 65.6405 61.6104C65.9298 61.9194 66.1073 62.3544 66.1345 62.8212Z"
        fill="#00FFF0" />
    <path
        d="M222.533 132.945L219.586 131.438L217.564 113.494H190.641L188.449 131.364L185.812 132.965C185.686 133.042 185.585 133.168 185.525 133.323C185.466 133.478 185.451 133.654 185.483 133.82C185.515 133.987 185.593 134.136 185.704 134.242C185.814 134.348 185.951 134.406 186.092 134.406H222.29C222.435 134.406 222.575 134.345 222.687 134.234C222.798 134.123 222.875 133.968 222.904 133.796C222.932 133.624 222.911 133.445 222.843 133.29C222.776 133.135 222.666 133.013 222.533 132.945Z"
        fill="#CCCCCC" />
    <path
        d="M270.377 115.881H138.122C137.428 115.879 136.763 115.543 136.273 114.946C135.783 114.35 135.507 113.542 135.507 112.699V90.0481H272.991V112.699C272.991 113.542 272.716 114.35 272.226 114.946C271.736 115.543 271.071 115.879 270.377 115.881Z"
        fill="#CCCCCC" />
    <path
        d="M273.13 100.753H135.387V3.83622C135.388 2.81913 135.721 1.84404 136.313 1.12486C136.906 0.405677 137.708 0.00113806 138.546 0H269.971C270.809 0.00113804 271.612 0.405678 272.204 1.12486C272.796 1.84403 273.129 2.81913 273.13 3.83622L273.13 100.753Z"
        fill="#3F3D56" />
    <path
        d="M264.903 93.7191H143.614C142.968 93.7183 142.349 93.4064 141.893 92.8519C141.436 92.2975 141.179 91.5458 141.179 90.7617V9.99174C141.179 9.2076 141.436 8.45583 141.893 7.90136C142.349 7.34688 142.968 7.03499 143.614 7.03409H264.903C265.549 7.03499 266.168 7.34688 266.624 7.90136C267.081 8.45583 267.338 9.2076 267.338 9.99174V90.7617C267.338 91.5458 267.081 92.2975 266.624 92.8519C266.168 93.4064 265.549 93.7183 264.903 93.7191Z"
        fill="#CCCCCC" />
    <path
        d="M232.957 122.219C233.74 121.34 234.673 120.681 235.688 120.287C236.704 119.894 237.778 119.775 238.835 119.941C239.893 120.106 240.907 120.551 241.808 121.243C242.708 121.936 243.473 122.861 244.047 123.951L260.453 120.409L264.657 131.992L241.431 136.6C239.859 137.651 238.023 137.964 236.273 137.482C234.523 136.999 232.979 135.753 231.935 133.98C230.89 132.208 230.418 130.031 230.606 127.864C230.794 125.696 231.631 123.687 232.957 122.219Z"
        fill="#FFB6B6" />
    <path
        d="M248.146 137.009L265.249 136.75L267.414 136.715L302.212 136.182C302.212 136.182 311.661 125.233 319.89 113.96L318.736 103.829C317.611 93.8864 313.55 84.7786 307.309 78.201C295.524 87.7647 288.69 106.695 288.69 106.695L267.114 112.963L264.956 113.59L251.55 117.48L248.146 137.009Z"
        fill="#6C63FF" />
    <path
        d="M335.7 199.28H303.775C303.775 200.941 268.876 202.29 268.876 202.29C268.106 202.994 267.404 203.801 266.784 204.697C264.921 207.396 263.903 210.807 263.909 214.329V216.737C263.91 220.727 265.216 224.554 267.54 227.376C269.863 230.198 273.014 231.784 276.3 231.786H335.7C338.986 231.782 342.136 230.196 344.459 227.374C346.782 224.553 348.088 220.727 348.091 216.737V214.329C348.087 210.339 346.78 206.515 344.457 203.694C342.134 200.873 338.985 199.285 335.7 199.28Z"
        fill="#3A8B7D" />
    <path d="M312.484 231.188H299.598V321.526H312.484V231.188Z" fill="#3A8B7D" />
    <path
        d="M262.921 320.976C262.921 322.667 282.449 321.63 306.537 321.63C330.625 321.63 350.153 322.667 350.153 320.976C350.153 319.285 330.625 305.875 306.537 305.875C282.449 305.875 262.921 319.285 262.921 320.976Z"
        fill="#3A8B7D" />
    <path d="M254.265 310.654L244.674 310.653L240.112 265.725L254.266 265.726L254.265 310.654Z"
        fill="#FFB6B6" />
    <path
        d="M256.71 321.945L225.786 321.943V321.468C225.786 317.591 227.055 313.873 229.312 311.132C231.569 308.39 234.63 306.85 237.823 306.85H237.823L256.711 306.851L256.71 321.945Z"
        fill="#3E3D54" />
    <path d="M225.919 310.654L216.329 310.653L211.766 265.725L225.921 265.726L225.919 310.654Z"
        fill="#FFB6B6" />
    <path
        d="M228.365 321.945L197.44 321.943V321.468C197.441 317.591 198.709 313.873 200.966 311.132C203.223 308.39 206.285 306.85 209.477 306.85H209.478L228.365 306.851L228.365 321.945Z"
        fill="#3E3D54" />
    <path
        d="M311.829 51.9968C321.039 51.9968 328.505 42.9293 328.505 31.744C328.505 20.5587 321.039 11.4912 311.829 11.4912C302.62 11.4912 295.154 20.5587 295.154 31.744C295.154 42.9293 302.62 51.9968 311.829 51.9968Z"
        fill="#FFB6B6" />
    <path
        d="M338.819 170.508C338.819 170.508 344.414 206.441 323.125 211.017C301.837 215.593 271.106 218.809 271.106 218.809L257.306 297.007L238.766 294.997C238.766 294.997 241.232 200.864 247.296 193.499C253.359 186.134 291.685 164.083 291.685 164.083L338.819 170.508Z"
        fill="#3E3D54" />
    <path
        d="M297.241 155.448L287.93 166.793C287.93 166.793 220.702 179.944 218.109 198.803C214.193 227.274 209.568 289.188 209.568 289.188L229.781 287.347L237.707 216.968L270.048 208.033L306.842 183.68L297.241 155.448Z"
        fill="#3E3D54" />
    <path
        d="M327.876 19.6546C326.23 15.8826 324.138 8.36489 320.816 6.97065C318.97 6.2276 317.063 5.7342 315.129 5.49941L309.482 8.13742L312.555 5.23415C311.957 5.19085 311.359 5.15545 310.761 5.12796L306.951 6.90784L308.9 5.06637C305.348 5.02209 301.681 5.47069 298.929 8.09712C296.582 10.3362 294.257 18.8181 293.881 22.4134C293.479 25.8528 293.62 29.3537 294.296 32.7293L295.261 33.8437C295.598 32.9036 295.852 31.9225 296.018 30.9169C296.364 29.038 297.028 27.2672 297.969 25.7174C298.909 24.1676 300.105 22.8728 301.481 21.9155L301.533 21.8795C303.152 20.7733 305.116 20.8242 306.972 20.9054L315.786 21.2906C317.907 21.3833 320.19 21.5463 321.844 23.1619C322.895 24.3537 323.721 25.8074 324.266 27.4233C325.087 29.4371 326.693 37.0328 326.693 37.0328C326.693 37.0328 327.601 35.5991 328.036 36.6662C328.735 33.8819 329.159 31.0071 329.301 28.1016C329.44 25.1833 328.949 22.2714 327.876 19.6546Z"
        fill="#2F2E41" />
    <path
        d="M386.2 40.6381C385.136 40.7231 384.101 41.0904 383.166 41.7141C382.232 42.3377 381.422 43.2026 380.793 44.2477C380.163 45.2928 379.731 46.4928 379.524 47.7631C379.318 49.0334 379.344 50.3431 379.6 51.6L366.19 63.6135L370.214 75.2912L388.955 58.0027C390.665 57.3409 392.115 55.9402 393.032 54.0661C393.949 52.192 394.267 49.9746 393.928 47.8342C393.588 45.6938 392.614 43.779 391.189 42.4527C389.765 41.1264 387.99 40.4807 386.2 40.6381Z"
        fill="#FFB6B6" />
    <path
        d="M384.041 65.1638L350.424 110.508C350.424 110.508 334.348 104.257 321.915 97.4811L316.33 76.6459C315.033 71.8125 314.479 66.7303 314.697 61.6535C331.932 56.0833 351.979 76.8093 351.979 76.8093L377.143 52.8704L384.041 65.1638Z"
        fill="#6C63FF" />
    <path
        d="M305.601 173.857C299.603 171.341 293.402 168.739 286.713 167.763L286.425 167.72L286.505 167.383C293.429 137.854 291.701 118.964 288.307 90.59C287.586 84.4697 288.513 78.23 290.951 72.8023C293.389 67.3746 297.207 63.0499 301.834 60.4737L301.875 60.4512L320.98 58.9767L321.024 58.9735L334.919 63.9367C336.917 64.656 338.667 66.1514 339.899 68.1937C341.131 70.2361 341.778 72.7127 341.741 75.2442C341.59 84.5757 341.909 94.994 342.247 106.024C343.005 130.768 343.79 156.356 339.34 172.957L339.317 173.044L339.258 173.101C335.168 177.147 330.044 179.333 324.769 179.282C318.532 179.282 312.168 176.612 305.601 173.857Z"
        fill="#6C63FF" />
</svg>
    