<svg width="33" height="26" viewBox="0 0 33 26" fill="none" xmlns="http://www.w3.org/2000/svg">
    <path
        d="M1 13C1 7.3435 1 4.5145 2.77753 2.758C4.55355 1 7.41398 1 13.1333 1H19.2C24.9193 1 27.7798 1 29.5558 2.758C31.3333 4.5145 31.3333 7.3435 31.3333 13C31.3333 18.6565 31.3333 21.4855 29.5558 23.242C27.7798 25 24.9193 25 19.2 25H13.1333C7.41398 25 4.55355 25 2.77753 23.242C1 21.4855 1 18.6565 1 13Z"
        stroke="white" stroke-width="1.5" />
    <path d="M13.1333 19.75H7.06667M10.1 15.25H7.06667M1 10H31.3333" stroke="white"
        stroke-width="1.5" stroke-linecap="round" />
    <path
        d="M19.1997 17.5C19.1997 16.0855 19.1997 15.379 19.6441 14.9395C20.0885 14.5 20.8028 14.5 22.233 14.5C23.6633 14.5 24.3776 14.5 24.822 14.9395C25.2664 15.379 25.2664 16.0855 25.2664 17.5C25.2664 18.9145 25.2664 19.621 24.822 20.0605C24.3776 20.5 23.6633 20.5 22.233 20.5C20.8028 20.5 20.0885 20.5 19.6441 20.0605C19.1997 19.621 19.1997 18.9145 19.1997 17.5Z"
        stroke="white" stroke-width="1.5" />
</svg>
    