<svg width="200" height="200" viewBox="0 0 392 248" fill="none" xmlns="http://www.w3.org/2000/svg">
    <path d="M255.936 237.218L248.677 238.559L238.851 216.455L249.566 214.475L255.936 237.218Z"
        fill="#FFB6B6" />
    <path
        d="M257.916 243.322L235.591 247.447L235.527 247.218C235.002 245.346 235.415 243.382 236.674 241.757C237.932 240.133 239.934 238.981 242.239 238.555L245.613 235.288L253.925 236.395L255.874 236.035L257.916 243.322Z"
        fill="#3E3D54" />
    <path d="M373.046 129.472L377.037 134.577L354.694 149.51L348.804 141.976L373.046 129.472Z"
        fill="#FFB6B6" />
    <path
        d="M379.462 125.911L391.736 141.608L391.491 141.734C389.496 142.763 387.08 143.106 384.773 142.688C382.466 142.27 380.459 141.125 379.191 139.505L374.271 138.019L372.766 131.287L371.695 129.917L379.462 125.911Z"
        fill="#3E3D54" />
    <path
        d="M141.634 74.8969L139.841 66.4559L167.101 56.4581L172.988 47.9927C172.798 47.2498 172.864 46.4787 173.18 45.7646C173.496 45.0505 174.048 44.4211 174.776 43.9459C175.505 43.4708 176.381 43.1684 177.307 43.0722C178.234 42.976 179.175 43.0897 180.027 43.4007C180.879 43.7118 181.609 44.208 182.136 44.8347C182.662 45.4614 182.965 46.1941 183.011 46.9519C183.058 47.7097 182.845 48.4631 182.397 49.1289C181.949 49.7947 181.283 50.347 180.473 50.7247L170.789 62.8851L141.634 74.8969Z"
        fill="#A0616A" />
    <path d="M133.348 67.9966L145.624 62.9036L148.874 72.8139L140.347 77.9476L133.348 67.9966Z"
        fill="#6C63FF" />
    <path d="M105.802 236.451L113.224 236.45L116.755 213.197L105.8 213.197L105.802 236.451Z"
        fill="#A0616A" />
    <path
        d="M115.694 236.993V232.906L113.742 233.003L105.799 233.385L103.961 233.477L102.555 247.165L102.48 247.899H107.75L107.92 247.17L108.685 243.857L110.662 247.17L111.095 247.899H125.067C125.899 247.894 126.695 247.624 127.282 247.146C127.87 246.668 128.201 246.021 128.205 245.345C128.794 243.108 117.174 238.272 115.694 236.993Z"
        fill="#3E3D54" />
    <path d="M17.6937 144.168L15.9634 150.031L42.981 158.241L45.5344 149.589L17.6937 144.168Z"
        fill="#A0616A" />
    <path
        d="M15.3249 151.855L20.2182 152.808L20.5573 151.244L21.9517 144.881L22.2706 143.408L6.20998 139.106L5.34893 138.876L4.12008 143.038L4.95307 143.342L8.74048 144.719L4.31377 145.508L3.34034 145.68L0.0824312 156.716C-0.106318 157.373 0.0319976 158.065 0.467371 158.64C0.902744 159.216 1.60001 159.628 2.40774 159.789C4.94873 160.776 13.4483 152.726 15.3249 151.855Z"
        fill="#3E3D54" />
    <path
        d="M117.278 85.9572L107.724 82.3298L88.6715 101.057L77.0664 103.44C76.2341 103.096 75.3007 102.945 74.3694 103.004C73.4381 103.063 72.545 103.331 71.7889 103.776C71.0328 104.222 70.443 104.828 70.0848 105.529C69.7265 106.23 69.6137 106.997 69.7588 107.747C69.9038 108.496 70.3012 109.199 70.9069 109.776C71.5126 110.354 72.3031 110.784 73.1911 111.02C74.079 111.256 75.0299 111.287 75.9387 111.112C76.8475 110.936 77.6788 110.56 78.3408 110.024L95.3344 105.638L117.278 85.9572Z"
        fill="#A0616A" />
    <path
        d="M252.727 16.6328C250.702 16.6328 248.722 16.1451 247.038 15.2312C245.355 14.3174 244.042 13.0186 243.267 11.4989C242.492 9.97932 242.289 8.30718 242.685 6.69395C243.08 5.08073 244.055 3.59888 245.487 2.43581C246.919 1.27275 248.743 0.480688 250.73 0.159798C252.716 -0.161092 254.775 0.00361106 256.646 0.633059C258.517 1.26251 260.116 2.32844 261.241 3.69606C262.366 5.06369 262.966 6.67157 262.966 8.31639C262.963 10.5213 261.884 12.6352 259.964 14.1943C258.044 15.7534 255.442 16.6303 252.727 16.6328ZM252.727 0.954401C250.934 0.954401 249.182 1.38617 247.691 2.19512C246.201 3.00407 245.039 4.15385 244.353 5.49908C243.667 6.84431 243.487 8.32457 243.837 9.75266C244.187 11.1808 245.05 12.4925 246.318 13.5221C247.585 14.5517 249.2 15.2529 250.959 15.537C252.717 15.821 254.54 15.6752 256.196 15.118C257.852 14.5608 259.268 13.6172 260.264 12.4065C261.26 11.1958 261.791 9.77246 261.791 8.31639C261.789 6.36455 260.833 4.49328 259.134 3.11311C257.434 1.73295 255.13 0.956614 252.727 0.954401Z"
        fill="#00FFF0" />
    <path
        d="M252.004 11.4495C251.984 11.4495 251.963 11.4489 251.943 11.4481C251.761 11.441 251.583 11.402 251.422 11.3339C251.26 11.2657 251.119 11.17 251.007 11.0533L249.394 9.36902C249.292 9.26271 249.217 9.14115 249.173 9.01127C249.129 8.88139 249.117 8.74574 249.138 8.61208C249.158 8.47841 249.211 8.34933 249.293 8.23223C249.375 8.11513 249.485 8.0123 249.615 7.92961L249.674 7.89292C249.804 7.81014 249.954 7.74913 250.114 7.71336C250.274 7.6776 250.441 7.66781 250.606 7.68451C250.77 7.70122 250.929 7.74411 251.073 7.81074C251.218 7.87738 251.344 7.96643 251.446 8.07283C251.528 8.15779 251.631 8.22745 251.748 8.27707C251.866 8.32669 251.995 8.35509 252.128 8.36033C252.26 8.36557 252.393 8.34752 252.516 8.30742C252.639 8.26732 252.75 8.20612 252.841 8.12799L256.116 5.31983C256.346 5.12261 256.664 5.0077 256.999 5.00032C257.333 4.99293 257.658 5.09366 257.901 5.28042L257.955 5.322C258.075 5.41462 258.172 5.5256 258.24 5.64861C258.307 5.77162 258.345 5.90424 258.349 6.03889C258.354 6.17355 258.325 6.30761 258.266 6.4334C258.207 6.55919 258.117 6.67425 258.003 6.77201L252.921 11.1291C252.803 11.2303 252.661 11.3109 252.503 11.366C252.346 11.4211 252.176 11.4495 252.004 11.4495Z"
        fill="#00FFF0" />
    <path
        d="M201.612 117.321C199.587 117.321 197.607 116.833 195.923 115.919C194.239 115.005 192.927 113.706 192.152 112.187C191.377 110.667 191.174 108.995 191.569 107.382C191.964 105.768 192.94 104.287 194.372 103.124C195.804 101.96 197.628 101.168 199.614 100.848C201.601 100.527 203.659 100.691 205.53 101.321C207.401 101.95 209 103.016 210.126 104.384C211.251 105.751 211.851 107.359 211.851 109.004C211.848 111.209 210.768 113.323 208.849 114.882C206.929 116.441 204.327 117.318 201.612 117.321ZM201.612 101.642C199.819 101.642 198.067 102.074 196.576 102.883C195.085 103.692 193.924 104.842 193.238 106.187C192.552 107.532 192.372 109.012 192.722 110.44C193.072 111.868 193.935 113.18 195.202 114.21C196.47 115.239 198.085 115.941 199.844 116.225C201.602 116.509 203.424 116.363 205.081 115.806C206.737 115.249 208.153 114.305 209.149 113.094C210.145 111.884 210.676 110.46 210.676 109.004C210.673 107.052 209.718 105.181 208.018 103.801C206.319 102.421 204.015 101.644 201.612 101.642Z"
        fill="#00FFF0" />
    <path
        d="M200.889 112.137C200.869 112.137 200.848 112.137 200.828 112.136C200.646 112.129 200.468 112.09 200.306 112.022C200.145 111.953 200.004 111.858 199.892 111.741L198.279 110.057C198.177 109.95 198.102 109.829 198.058 109.699C198.014 109.569 198.002 109.433 198.022 109.3C198.043 109.166 198.096 109.037 198.178 108.92C198.26 108.803 198.369 108.7 198.5 108.617L198.558 108.581C198.689 108.498 198.839 108.437 198.999 108.401C199.159 108.365 199.326 108.355 199.49 108.372C199.655 108.389 199.814 108.432 199.958 108.498C200.102 108.565 200.229 108.654 200.331 108.761C200.412 108.845 200.515 108.915 200.633 108.965C200.751 109.014 200.88 109.043 201.013 109.048C201.145 109.053 201.277 109.035 201.4 108.995C201.523 108.955 201.634 108.894 201.726 108.816L205.001 106.008C205.231 105.81 205.549 105.695 205.883 105.688C206.218 105.681 206.543 105.781 206.786 105.968L206.84 106.01C206.96 106.102 207.057 106.213 207.125 106.336C207.192 106.459 207.229 106.592 207.234 106.727C207.238 106.861 207.21 106.995 207.151 107.121C207.091 107.247 207.002 107.362 206.888 107.46L201.806 111.817C201.688 111.918 201.546 111.999 201.388 112.054C201.231 112.109 201.061 112.137 200.889 112.137Z"
        fill="#00FFF0" />
    <path
        d="M107.646 116.122C107.646 116.122 91.9702 124.413 96.1152 129.922C96.2582 130.112 77.3907 150.351 77.3907 150.351L41.7734 148.514L40.5186 158.197L72.2276 165.656C72.2276 165.656 79.9848 170.285 85.9775 165.185C91.9702 160.085 111.931 144.467 111.931 144.467L112.894 175.998L102.874 219.692L117.835 218.921L132.397 175.086L137.773 125.432L107.646 116.122Z"
        fill="#3E3D54" />
    <path
        d="M118.812 66.3661L112.22 70.4235L104.707 83.4478L111.932 91.4173C111.932 91.4173 118.009 99.9718 108.281 108.256C98.5536 116.541 91.0838 125.389 98.8698 125.073C106.656 124.757 138.19 137.784 138.398 127.111C138.605 116.439 139.025 108.256 139.025 108.256L147.293 91.2247C147.293 91.2247 152.219 81.0645 148.76 78.0232C145.302 74.9818 140.672 71.0955 140.672 71.0955L132.251 64.2563H124.648L118.812 66.3661Z"
        fill="#6C63FF" />
    <path
        d="M131.117 41.3413C145.906 48.1762 133.765 66.2098 118.701 59.7882C103.913 52.9536 116.053 34.9199 131.117 41.3413Z"
        fill="#A0616A" />
    <path
        d="M139.025 45.131C137.989 46.2256 135.824 45.7124 131.584 46.4935C131.594 45.3263 131.428 44.1626 131.09 43.0281C130.775 44.4328 130.083 45.7641 129.065 46.928C125.384 47.2596 129.897 56.3429 128.012 63.0212C125.583 48.9321 120.475 52.6233 123.056 55.4179C124.708 57.2069 123.606 62.574 118.65 59.8904C110.473 63.0469 98.8261 47.3673 111.734 40.0138C111.504 36.039 116.949 35.4111 120.302 36.6332C128.44 31.7096 137.737 38.0184 139.025 45.131Z"
        fill="#2F2E41" />
    <path
        d="M114.419 36.457C114.311 36.4938 114.203 36.5307 114.107 36.5721H114.101C114.011 36.609 113.92 36.6458 113.829 36.6872C113.818 36.6918 113.812 36.6964 113.801 36.7011C113.682 36.609 113.563 36.5169 113.438 36.4248C113.406 36.5748 113.413 36.7286 113.461 36.876L113.478 36.9313C113.591 37.0279 113.71 37.12 113.835 37.2167C113.948 37.1477 114.056 37.074 114.169 37.0049C114.237 36.9589 114.305 36.9128 114.379 36.8668C114.39 36.7471 114.407 36.6089 114.424 36.457L114.419 36.457ZM117.831 31.337C115.303 30.8673 114.487 33.5517 114.243 34.8455C113.325 30.149 109.504 31.627 110.825 34.8316C111.246 35.7804 111.908 36.6465 112.769 37.3733C112.888 37.4838 113.019 37.5942 113.155 37.7048C113.001 38.3494 113.772 38.1836 114.816 37.5897C115.586 37.1448 116.298 36.6372 116.941 36.0748C119.022 34.3022 120.643 31.9309 117.831 31.337ZM117.911 33.9799C117.131 34.7968 116.256 35.5508 115.297 36.2314C114.997 36.4524 114.691 36.6642 114.379 36.8668C114.373 36.9082 114.373 36.9451 114.368 36.9773C114.346 37.022 114.319 37.0651 114.288 37.1062C113.971 37.5712 113.614 37.318 113.478 36.9313C113.466 36.9174 113.449 36.9036 113.438 36.8898C112.985 36.5097 112.591 36.086 112.265 35.6282C109.923 32.3315 113.693 30.0892 113.506 36.2452C113.472 36.3017 113.449 36.3623 113.438 36.4248C113.406 36.5748 113.413 36.7286 113.461 36.876L113.478 36.9313C113.591 37.0279 113.71 37.12 113.835 37.2167C113.948 37.1477 114.056 37.074 114.169 37.0049C114.237 36.9589 114.305 36.9128 114.379 36.8668C114.39 36.7471 114.407 36.6089 114.424 36.457V36.4524C114.572 35.2184 114.974 32.9991 115.717 32.396C117.35 31.3784 119.464 32.4788 117.911 33.9799ZM114.419 36.457C114.311 36.4938 114.203 36.5307 114.107 36.5721H114.101C114.011 36.609 113.92 36.6458 113.829 36.6872C113.818 36.6918 113.812 36.6964 113.801 36.7011C113.682 36.609 113.563 36.5169 113.438 36.4248C113.406 36.5748 113.413 36.7286 113.461 36.876L113.478 36.9313C113.591 37.0279 113.71 37.12 113.835 37.2167C113.948 37.1477 114.056 37.074 114.169 37.0049C114.237 36.9589 114.305 36.9128 114.379 36.8668C114.39 36.7471 114.407 36.6089 114.424 36.457L114.419 36.457Z"
        fill="#2F2E41" />
    <path
        d="M251.104 127.104L245.642 138.673L220.021 179.721L242.534 227.473L254.153 224.982L244.577 179.721L272.052 152.607L304.681 170.582C304.681 170.582 319.152 179.757 324.657 171.059C330.162 162.36 365.784 143.859 365.784 143.859L356.971 136.224L315.951 151.815L287.638 119.448L251.104 127.104Z"
        fill="#3E3D54" />
    <path
        d="M278.663 72.5353L269.673 64.6898L254.25 62.9666L235.353 73.7114L235.543 85.6046L244.885 113.63C244.885 113.63 241.326 133.764 251.265 133.562C261.204 133.361 266.621 129.336 270.669 130.155C274.717 130.975 291.925 134.461 293.015 130.809C294.106 127.157 299.902 129.772 299.648 126.317C299.393 122.862 283.955 97.9591 283.955 97.9591L287.794 73.0535L278.663 72.5353Z"
        fill="#3A8B7D" />
    <path
        d="M335.59 36.4211C335.67 37.0717 335.574 37.7288 335.308 38.346C335.042 38.9632 334.612 39.5254 334.05 39.9933C333.487 40.4611 332.805 40.823 332.052 41.0536C331.299 41.2842 330.492 41.3779 329.689 41.3279L309.014 73.2648L303.463 66.3438L324.596 36.2023C324.789 35.1125 325.467 34.118 326.502 33.4073C327.537 32.6965 328.857 32.3188 330.212 32.3457C331.568 32.3727 332.863 32.8025 333.854 33.5536C334.845 34.3047 335.463 35.325 335.59 36.4211Z"
        fill="#FFB6B6" />
    <path
        d="M270.501 78.4736C270.501 78.4736 269.681 84.1544 277.555 85.5608C285.429 86.9672 307.244 76.843 310.821 75.2966C311.941 74.8124 313.46 72.439 315.02 69.407C315.719 68.0458 316.427 66.5518 317.111 65.0365C317.506 64.1596 319.4 63.9203 319.773 63.0507C320.143 62.1858 318.993 60.6905 319.329 59.8754C320.922 56.0064 322.05 52.937 322.05 52.937L316.831 44.9748C309.532 48.1089 305.789 55.0123 303.035 62.9656L270.501 78.4736Z"
        fill="#3A8B7D" />
    <path
        d="M178.54 43.7552C178.663 44.4014 178.959 45.018 179.406 45.5615C179.854 46.105 180.443 46.5621 181.132 46.9007C181.82 47.2393 182.592 47.4511 183.393 47.5212C184.193 47.5914 185.003 47.5181 185.765 47.3066L215.623 74.0247L218.865 66.1956L189.117 41.3088C188.594 40.2928 187.631 39.4678 186.41 38.9901C185.189 38.5123 183.794 38.415 182.491 38.7165C181.187 39.0181 180.065 39.6976 179.337 40.6262C178.609 41.5549 178.325 42.6682 178.54 43.7552Z"
        fill="#FFB6B6" />
    <path
        d="M254.516 71.2395C254.516 71.2395 257.06 76.5729 249.87 79.535C242.679 82.4972 218.439 77.1293 214.5 76.3591C213.266 76.1179 211.064 74.1289 208.62 71.5103C207.523 70.3347 206.377 69.0322 205.249 67.704C204.596 66.9354 202.688 67.0885 202.06 66.3223C201.434 65.5603 202.087 63.8788 201.511 63.1578C198.777 59.7358 196.738 56.9934 196.738 56.9934L199.338 48.2238C207.37 49.7746 213.122 55.6974 218.238 62.838L254.516 71.2395Z"
        fill="#3A8B7D" />
    <path
        d="M262.269 60.9708C270.373 60.9708 276.943 55.6347 276.943 49.0524C276.943 42.47 270.373 37.134 262.269 37.134C254.165 37.134 247.595 42.47 247.595 49.0524C247.595 55.6347 254.165 60.9708 262.269 60.9708Z"
        fill="#FFB6B6" />
    <path
        d="M279.02 42.2281C277.476 40.2886 274.579 38.9959 271.771 39.3592C271.51 37.9036 270.762 36.5343 269.609 35.4001C268.455 34.266 266.941 33.4105 265.231 32.9269C263.52 32.4434 261.68 32.3502 259.908 32.6575C258.137 32.9649 256.504 33.661 255.186 34.6701C254.753 34.4223 254.248 34.2695 253.721 34.2267C253.194 34.1838 252.662 34.2523 252.176 34.4254C251.21 34.7823 250.369 35.3305 249.731 36.0196C248.12 37.6517 247.083 39.6081 246.732 41.6805C246.381 43.753 246.729 45.8639 247.738 47.7887C247.395 46.7754 248.645 45.8221 249.908 45.5947C251.172 45.3674 252.497 45.5825 253.778 45.4344C255.42 45.2446 256.896 44.471 258.54 44.2969C259.935 44.2233 261.333 44.3693 262.66 44.7269C263.986 45.0845 265.383 45.2368 266.778 45.176C268.162 45.0426 269.945 49.3027 269.921 52.3033C269.916 52.872 270.06 53.6021 270.745 53.7227C271.587 53.8713 272.075 52.9267 272.877 52.6694C273.247 52.5834 273.643 52.6172 273.983 52.7638C274.322 52.9105 274.578 53.1584 274.697 53.4554C274.798 53.7573 274.809 54.0745 274.729 54.3805C274.649 54.6866 274.479 54.9726 274.235 55.2148C273.743 55.6949 273.157 56.1072 272.502 56.4358L272.833 56.6589C273.146 56.928 273.565 57.1001 274.018 57.1458C274.471 57.1915 274.929 57.1079 275.314 56.9093C276.071 56.4927 276.684 55.9256 277.095 55.2619C278.643 53.3177 279.75 51.1641 280.362 48.903C280.879 46.6321 280.563 44.1677 279.02 42.2281Z"
        fill="#2F2E41" />
</svg>
    