<svg width="32" height="24" viewBox="0 0 32 24" fill="none" xmlns="http://www.w3.org/2000/svg">
    <path
        d="M0 16.3582C0.120419 16.0943 0.272251 16.0503 0.507853 16.2011C1.05236 16.553 1.58639 16.9175 2.14136 17.2506C4.2653 18.5219 6.50317 19.4981 8.81152 20.1603C9.90262 20.4757 11.0073 20.7233 12.1204 20.9018C13.7686 21.1683 15.4314 21.2764 17.0942 21.2286C20.9713 21.0913 24.7941 20.0986 28.3717 18.3001C28.5236 18.2247 28.6806 18.1744 28.8482 18.2247C29.199 18.3378 29.3194 18.7903 29.0628 19.0982C28.9068 19.2704 28.7382 19.4262 28.5602 19.5632C26.9529 20.8892 25.199 21.8507 23.3456 22.5734C22.0621 23.0697 20.7471 23.4397 19.4136 23.6795C18.4911 23.8492 17.5613 23.9497 16.6283 23.9811C16.5844 23.9843 16.5407 23.9905 16.4974 24H15.3927C15.3493 23.9912 15.3056 23.9849 15.2618 23.9811C15.0733 23.9686 14.8848 23.9623 14.7016 23.956C12.3632 23.8202 10.0549 23.2652 7.8534 22.3095C5.04293 21.0929 2.45455 19.2365 0.230367 16.8421C0.136126 16.7416 0.0732984 16.6033 0 16.4839V16.3582ZM8.27225 0.00628451L8.04712 0.043991C7.3272 0.150651 6.64215 0.477395 6.05759 0.99293C5.93194 1.09976 5.81675 1.21288 5.68586 1.33229C5.67479 1.30459 5.66771 1.27484 5.66492 1.24431C5.64398 1.07463 5.62304 0.898665 5.59686 0.728987C5.56021 0.439906 5.43979 0.314218 5.19895 0.314218H4.59686C4.2356 0.314218 4.16754 0.395916 4.16754 0.829537V13.9827C4.16754 14.0456 4.16754 14.1084 4.17277 14.1712C4.18325 14.3598 4.27749 14.4792 4.42932 14.4855C4.79581 14.4918 5.16754 14.4918 5.53403 14.4855C5.68586 14.4855 5.78011 14.3598 5.79581 14.1712C5.80105 14.1084 5.80105 14.0456 5.80105 13.9827V9.43284C5.85864 9.48939 5.89005 9.52082 5.91623 9.55224C6.8534 10.4886 7.93194 10.7965 9.10995 10.52C10.178 10.2687 10.9215 9.48311 11.4031 8.32679C11.7696 7.45326 11.9215 6.52317 11.9424 5.55538C11.9686 4.48075 11.8796 3.42498 11.5183 2.42577C11.0733 1.19403 10.3351 0.383346 9.2199 0.106834C9.05236 0.0628437 8.87958 0.0439909 8.70681 0.012569C8.56021 0.00628466 8.41885 0.00628451 8.27225 0.00628451ZM5.79058 2.63943C5.78747 2.59829 5.79418 2.55693 5.80995 2.5202C5.82571 2.48347 5.84986 2.4529 5.87958 2.43205C6.59686 1.83504 7.38744 1.52082 8.26702 1.60251C9.04712 1.67164 9.68586 2.1304 10.0209 3.23017C10.2251 3.90259 10.2775 4.60016 10.2775 5.30401C10.2775 5.95758 10.2356 6.59859 10.0681 7.22702C9.71204 8.56559 8.89529 9.07463 7.8377 9.01807C7.10471 8.98036 6.46597 8.64101 5.87958 8.14454C5.85029 8.12315 5.82648 8.09246 5.81078 8.05588C5.79507 8.01929 5.78808 7.97821 5.79058 7.93716C5.79581 7.05106 5.79058 6.17125 5.79058 5.28515C5.79058 4.39906 5.79581 3.52553 5.79058 2.63943ZM16.5602 0.00628451C16.5079 0.0125689 16.4555 0.0251376 16.4084 0.031422C15.8982 0.0574407 15.3914 0.143744 14.8953 0.289081C14.5759 0.389631 14.267 0.527887 13.9581 0.653574C13.7696 0.728987 13.6754 0.89238 13.6806 1.13747C13.6859 1.34485 13.6754 1.55224 13.6806 1.75962C13.6859 2.06127 13.7906 2.14297 14.0366 2.06756C14.445 1.94187 14.8534 1.80361 15.267 1.70935C15.911 1.56481 16.5602 1.50196 17.2147 1.62137C17.555 1.68421 17.8743 1.80361 18.0942 2.14925C18.288 2.4509 18.3613 2.80911 18.3717 3.17989C18.3874 3.70149 18.3822 4.2231 18.3874 4.7447C18.3861 4.77433 18.3826 4.80377 18.377 4.83268C18.3508 4.82639 18.3298 4.83268 18.3089 4.82639C17.7594 4.66299 17.1986 4.55992 16.6335 4.51846C16.0419 4.48075 15.4555 4.52474 14.8901 4.76355C14.2147 5.04635 13.6702 5.53653 13.3508 6.32836C13.1047 6.94423 13.0681 7.5978 13.1466 8.25766C13.2513 9.13747 13.6178 9.81618 14.267 10.2498C14.8901 10.6646 15.5654 10.7148 16.2513 10.5892C17.0295 10.4426 17.7593 10.0426 18.3613 9.43284C18.3865 9.40544 18.4147 9.3822 18.445 9.36371C18.4764 9.60251 18.5026 9.82875 18.5393 10.055C18.5707 10.2498 18.6702 10.3755 18.822 10.3818C19.1047 10.3881 19.3927 10.3881 19.6754 10.3818C19.741 10.3812 19.8038 10.35 19.8507 10.2949C19.8976 10.2399 19.9248 10.1651 19.9267 10.0864C19.9311 10.0279 19.9328 9.96917 19.9319 9.91045V3.24902C19.9351 2.97769 19.9193 2.70651 19.8848 2.43834C19.7853 1.62765 19.4974 0.961508 18.8901 0.527887C18.5393 0.276512 18.1518 0.150825 17.7487 0.0816968C17.5602 0.050275 17.3717 0.0314218 17.1832 0C16.9791 0.00628437 16.7696 0.00628451 16.5602 0.00628451ZM18.3927 8.03142C18.3946 8.06837 18.3883 8.10527 18.3745 8.13838C18.3608 8.17149 18.3399 8.19963 18.3141 8.21995C17.7277 8.72899 17.0838 9.06834 16.356 9.15632C16.0576 9.19403 15.7592 9.18146 15.4764 9.04321C15.3211 8.97502 15.1813 8.86379 15.0685 8.71856C14.9557 8.57332 14.873 8.39819 14.8272 8.20738C14.7234 7.81086 14.7216 7.386 14.822 6.98822C14.9529 6.46661 15.2618 6.17125 15.6806 6.00785C16.101 5.85543 16.5429 5.80837 16.9791 5.8696C17.4188 5.91359 17.8482 6.01414 18.288 6.08327C18.3717 6.09584 18.3979 6.14611 18.3979 6.24666C18.3927 6.54831 18.3979 6.84368 18.3979 7.14533C18.3979 7.44698 18.3874 7.73606 18.3927 8.03142ZM32 16.1634C31.9476 15.8492 31.7487 15.7298 31.5236 15.6418C31.1667 15.5071 30.7975 15.4248 30.4241 15.3967C29.7386 15.3263 29.0483 15.3665 28.3717 15.5161C27.623 15.6858 26.911 15.9749 26.2775 16.4965C26.202 16.5546 26.1363 16.6292 26.0838 16.7164C26.0656 16.7541 26.054 16.7957 26.0495 16.8389C26.045 16.8821 26.0477 16.9259 26.0576 16.9678C26.0785 17.0621 26.1675 17.0872 26.2461 17.0809C26.2845 17.082 26.323 17.0799 26.3613 17.0746C26.7696 17.0244 27.1728 16.9678 27.5812 16.9175C28.178 16.8484 28.7801 16.8044 29.377 16.861C29.6325 16.8861 29.8848 16.9427 30.1309 17.0306C30.3979 17.1186 30.5183 17.3574 30.5288 17.6842C30.5497 18.187 30.4555 18.6709 30.3456 19.1485C30.1309 20.1163 29.822 21.0526 29.5183 21.9827C29.4962 22.0436 29.4787 22.1066 29.466 22.1712C29.4398 22.3535 29.5288 22.4729 29.6806 22.4289C29.7744 22.4039 29.8611 22.3497 29.9319 22.2718C30.1686 22.0079 30.3906 21.7276 30.5969 21.4297C31.267 20.3991 31.6597 19.2113 31.8901 17.9356C31.9319 17.7093 31.9634 17.4768 32 17.2506V16.1634ZM25.0838 8.42105L23.0576 1.68421C22.9529 1.326 22.8377 0.974077 22.7277 0.622153C22.6702 0.439906 22.5602 0.320503 22.3927 0.320503C21.9948 0.314219 21.5969 0.307934 21.1937 0.314218C21.0628 0.314218 21 0.439906 21.0262 0.597015C21.0513 0.72773 21.0848 0.855931 21.1257 0.980362C22.1518 4.02828 23.1832 7.0762 24.2199 10.1241C24.3089 10.3818 24.3298 10.6017 24.2304 10.8657C24.0576 11.3244 23.9215 11.8083 23.7435 12.2671C23.5864 12.6756 23.3246 12.9835 22.9476 13.1029C22.6847 13.1855 22.4114 13.2089 22.1414 13.172C22.0105 13.1595 21.8796 13.1218 21.7487 13.1092C21.5707 13.0966 21.4817 13.1909 21.4764 13.4108C21.4712 13.6182 21.4712 13.8257 21.4764 14.033C21.4817 14.3786 21.5812 14.5357 21.8639 14.5923C22.156 14.6614 22.4513 14.7042 22.7487 14.718C23.644 14.7431 24.356 14.3095 24.8168 13.3731C25.0021 13.0036 25.1634 12.6165 25.2984 12.2168C26.5393 8.45876 27.7717 4.69694 28.9948 0.930087C29.0335 0.819482 29.0607 0.702592 29.0785 0.584446C29.0995 0.408484 29.0314 0.307934 28.8848 0.307934C28.5393 0.30165 28.1885 0.307934 27.8429 0.307934C27.755 0.300548 27.6675 0.328711 27.5944 0.387936C27.5214 0.447162 27.4669 0.534039 27.4398 0.634721C27.4136 0.722702 27.3822 0.804399 27.356 0.89238L25.534 7.17675C25.4031 7.62922 25.267 8.08798 25.1309 8.57188C25.1099 8.50275 25.0995 8.46504 25.0838 8.42105Z"
        fill="white" />
</svg>
    