<svg width="23" height="23" viewBox="0 0 23 23" fill="none" xmlns="http://www.w3.org/2000/svg">
    <path
        d="M3.04883 9.87077C3.04883 8.87648 3.44381 7.9229 4.14688 7.21983C4.84996 6.51676 5.80353 6.12177 6.79783 6.12177C7.79212 6.12177 8.7457 6.51676 9.44877 7.21983C10.1518 7.9229 10.5468 8.87648 10.5468 9.87077V13.1115C10.5468 14.1058 10.1518 15.0593 9.44877 15.7624C8.7457 16.4655 7.79212 16.8605 6.79783 16.8605C5.80353 16.8605 4.84996 16.4655 4.14688 15.7624C3.44381 15.0593 3.04883 14.1058 3.04883 13.1115V9.87077ZM6.79783 8.23011C6.3627 8.23011 5.94539 8.40296 5.6377 8.71065C5.33002 9.01833 5.15716 9.43564 5.15716 9.87077V13.1115C5.15716 13.5466 5.33002 13.9639 5.6377 14.2716C5.94539 14.5793 6.3627 14.7521 6.79783 14.7521C7.23296 14.7521 7.65027 14.5793 7.95795 14.2716C8.26564 13.9639 8.43849 13.5466 8.43849 13.1115V9.87077C8.43849 9.43564 8.26564 9.01833 7.95795 8.71065C7.65027 8.40296 7.23296 8.23011 6.79783 8.23011ZM13.3206 6.12101C13.9033 6.12101 14.3748 6.59327 14.3748 7.17517V9.53804C14.3748 9.62467 14.4798 9.66684 14.5396 9.60397L17.5427 6.46984C17.6385 6.36986 17.753 6.28974 17.8798 6.23403C18.0065 6.17833 18.143 6.14813 18.2815 6.14518C18.4199 6.14223 18.5576 6.16657 18.6866 6.21681C18.8156 6.26706 18.9335 6.34223 19.0334 6.43802C19.1334 6.53382 19.2135 6.64837 19.2693 6.77513C19.325 6.9019 19.3551 7.03839 19.3581 7.17683C19.3611 7.31526 19.3367 7.45292 19.2865 7.58194C19.2362 7.71097 19.1611 7.82883 19.0653 7.92881L16.4233 10.6865C16.4084 10.702 16.3992 10.7221 16.3971 10.7435C16.395 10.765 16.4002 10.7865 16.4118 10.8046L19.2746 15.2543C19.3495 15.3707 19.4007 15.5008 19.4254 15.637C19.45 15.7733 19.4476 15.913 19.4182 16.0483C19.3888 16.1836 19.3331 16.3118 19.2542 16.4256C19.1753 16.5393 19.0747 16.6365 18.9583 16.7114C18.8419 16.7863 18.7118 16.8375 18.5756 16.8621C18.4393 16.8868 18.2996 16.8844 18.1643 16.855C18.029 16.8256 17.9008 16.7699 17.787 16.691C17.6733 16.6121 17.5762 16.5115 17.5013 16.3951L14.9368 12.4084C14.9289 12.3963 14.9185 12.3861 14.9061 12.3786C14.8938 12.3711 14.8799 12.3664 14.8655 12.365C14.8512 12.3636 14.8366 12.3655 14.8231 12.3705C14.8095 12.3755 14.7973 12.3835 14.7873 12.3939L14.4055 12.7925L14.4039 12.7941C14.3856 12.8124 14.3752 12.8372 14.3748 12.8631V15.8071C14.3748 16.0867 14.2637 16.3548 14.066 16.5525C13.8683 16.7502 13.6002 16.8612 13.3206 16.8612C13.041 16.8612 12.7729 16.7502 12.5752 16.5525C12.3775 16.3548 12.2665 16.0867 12.2665 15.8071V7.17441C12.2665 6.59251 12.7387 6.12024 13.3206 6.12024V6.12101Z"
        fill="white" />
    <path
        d="M3.83333 0C3.32993 0 2.83146 0.0991521 2.36638 0.291795C1.9013 0.484438 1.47872 0.766799 1.12276 1.12276C0.403868 1.84165 0 2.81667 0 3.83333V19.1667C0 20.1833 0.403868 21.1584 1.12276 21.8772C1.47872 22.2332 1.9013 22.5156 2.36638 22.7082C2.83146 22.9008 3.32993 23 3.83333 23H19.1667C20.1833 23 21.1584 22.5961 21.8772 21.8772C22.5961 21.1584 23 20.1833 23 19.1667V3.83333C23 3.32993 22.9008 2.83146 22.7082 2.36638C22.5156 1.9013 22.2332 1.47872 21.8772 1.12276C21.5213 0.766799 21.0987 0.484438 20.6336 0.291795C20.1685 0.0991521 19.6701 0 19.1667 0H3.83333ZM1.53333 3.83333C1.53333 3.22334 1.77565 2.63832 2.20699 2.20699C2.63832 1.77565 3.22334 1.53333 3.83333 1.53333H19.1667C19.7767 1.53333 20.3617 1.77565 20.793 2.20699C21.2243 2.63832 21.4667 3.22334 21.4667 3.83333V19.1667C21.4667 19.7767 21.2243 20.3617 20.793 20.793C20.3617 21.2243 19.7767 21.4667 19.1667 21.4667H3.83333C3.22334 21.4667 2.63832 21.2243 2.20699 20.793C1.77565 20.3617 1.53333 19.7767 1.53333 19.1667V3.83333Z"
        fill="white" />
</svg>
    